<svg xmlns="http://www.w3.org/2000/svg" width="128" height="128" fill="none"><path fill="url(#a)" d="M121 74c12 10.5 4.949 40-12.269 40H43.149c-7.02 0-12.237-3.386-15.243-8.134h-7.637C3.05 105.866-4.5 76 8 66z"/><path fill="#FF5233" d="m17.256 76.312 29.862-31.016a4.15 4.15 0 0 1 6.026 0l12.343 12.82 7.44-7.728a4.15 4.15 0 0 1 6.025 0l32.792 34.058c2.683 2.788.783 7.554-3.013 7.554H43.149c-3.796 0-5.696-4.766-3.013-7.554l.56-.58H20.269c-3.796 0-5.696-4.767-3.013-7.554"/><path fill="#FF5233" d="M121.829 74.736C132.321 85.633 125.949 106 108.731 106H43.149c-7.02 0-12.237-3.385-15.243-8.134h-7.637c-17.218 0-23.59-20.367-13.098-31.264l29.862-31.016c7.17-7.448 19.025-7.448 26.196 0l2.531 2.63a18.15 18.15 0 0 1 23.278 2.462z"/><path fill="url(#b)" d="M16.947 76.378c-2.693 2.794-.786 7.571 3.022 7.571h59.917c3.808 0 5.715-4.777 3.023-7.571l-29.96-31.089a4.165 4.165 0 0 0-6.044 0z"/><path fill="url(#c)" d="M39.9 84.531c-2.692 2.794-.785 7.572 3.023 7.572h65.794c3.808 0 5.715-4.778 3.023-7.572L78.842 50.394a4.165 4.165 0 0 0-6.044 0z"/><defs><linearGradient id="a" x1="2" x2="127" y1="112" y2="112" gradientUnits="userSpaceOnUse"><stop offset=".02" stop-color="#99311F"/><stop offset=".05" stop-color="#FF7350"/><stop offset=".105" stop-color="#99311F"/><stop offset=".165" stop-color="#99311F"/><stop offset=".255" stop-color="#FF7350"/><stop offset=".325" stop-color="#99311F"/><stop offset=".835" stop-color="#99311F"/><stop offset=".905" stop-color="#FF7350"/><stop offset=".97" stop-color="#99311F"/></linearGradient><linearGradient id="b" x1="77.978" x2="28.19" y1="71.261" y2="81.691" gradientUnits="userSpaceOnUse"><stop stop-color="#fff" stop-opacity=".3"/><stop offset="1" stop-color="#fff"/></linearGradient><linearGradient id="c" x1="105.917" x2="52.497" y1="78.489" y2="89.68" gradientUnits="userSpaceOnUse"><stop stop-color="#fff" stop-opacity=".3"/><stop offset="1" stop-color="#fff"/></linearGradient></defs></svg>