<svg xmlns="http://www.w3.org/2000/svg" width="16" height="16" fill="none"><g clip-path="url(#a)"><path fill="url(#b)" d="M.207 9.385c-.442.465-.129 1.26.497 1.26h9.852c.626 0 .94-.795.497-1.26L6.127 4.216a.68.68 0 0 0-.994 0z"/><path fill="url(#c)" d="M3.981 10.741C3.54 11.206 3.852 12 4.478 12h10.818c.626 0 .94-.794.497-1.259l-5.41-5.676a.68.68 0 0 0-.993 0z"/></g><defs><linearGradient id="b" x1="10.242" x2="2.048" y1="8.535" y2="10.232" gradientUnits="userSpaceOnUse"><stop stop-color="#fff" stop-opacity=".3"/><stop offset="1" stop-color="#fff"/></linearGradient><linearGradient id="c" x1="14.835" x2="6.044" y1="9.736" y2="11.557" gradientUnits="userSpaceOnUse"><stop stop-color="#fff" stop-opacity=".3"/><stop offset="1" stop-color="#fff"/></linearGradient><clipPath id="a"><path fill="#fff" d="M0 0h16v16H0z"/></clipPath></defs></svg>